<svg xmlns="http://www.w3.org/2000/svg" xmlns:xlink="http://www.w3.org/1999/xlink" viewBox="0 0 296.15 295.31"><defs><style>.cls-1{fill:url(#Dégradé_sans_nom_4);}</style><linearGradient id="Dégradé_sans_nom_4" x1="148.07" y1="32.87" x2="148.07" y2="271.34" gradientUnits="userSpaceOnUse"><stop offset="0" stop-color="#43a857"/><stop offset="1" stop-color="#11a2dc"/></linearGradient></defs><g id="Calque_2" data-name="Calque 2"><g id="Calque_1-2" data-name="Calque 1"><path class="cls-1" d="M296.15,261.44a34.41,34.41,0,0,1-10.36,24.76l-.65.59c-6.9,5.74-13.16,8.52-19.13,8.52h-8.67a17.84,17.84,0,0,1-4.6-.64l-.35-.1a35.15,35.15,0,0,1-19-13.91l-.53-.91L148.65,113.11l-.17-.5c-.12-.32-.23-.62-.35-.88-31.74,63.66-32.3,64.51-32.9,65.41a5.48,5.48,0,0,1-.34.46q-8.2,16.18-16.42,32.35Q82,242.28,65.57,274.61c-.06.15-.13.31-.22.49l-.09.15c-.31.64-.63,1.24-.94,1.86l-.95,2-.58.91a41.09,41.09,0,0,1-3.92,5.19l-.72.7c-7.11,6.34-13.59,9.41-19.81,9.41H29.8c-3,0-6.55-1-11-3.12l-.8-.43C3.1,282.73,0,270.47,0,261.78a35.1,35.1,0,0,1,4.6-16.62L65.77,122l0,0c10.52-21.14,28.41-56.83,52.42-104.55l.49-.83C127.73,2.89,139.11,0,147.07,0h2c10.15,0,19.07,4.67,26.54,13.88l.36.47c1,1.41,3.08,5.22,21.15,41.63q43.48,86.57,65.23,130,10.88,21.72,16.32,32.64c2.83,5.71,4.4,8.86,5.26,10.79h0C294.75,249.35,296.15,257,296.15,261.44Z"/></g></g></svg>