<svg xmlns="http://www.w3.org/2000/svg" viewBox="0 0 1010.12 210.37"><defs><style>.cls-1{fill:#fff;}.cls-2{fill:#2ca95b;}.cls-3{fill:#00a3e0;}</style></defs><g id="Calque_2" data-name="Calque 2"><g id="Calque_1-2" data-name="Calque 1"><path class="cls-1" d="M826.56,24.94V186.47a23.9,23.9,0,1,1-47.8,0V94.23l-36,45.88a25.35,25.35,0,0,1-38.88,0l-36-45.88v92.24a23.9,23.9,0,0,1-47.8,0V24.94a24,24,0,0,1,.33-3.88c.07-.43.15-.87.25-1.3s.21-.86.33-1.29.23-.8.37-1.2l.05-.14c.11-.33.23-.65.36-1l.13-.3c.13-.34.28-.68.44-1l.29-.58c.25-.52.53-1,.82-1.52l.13-.21c.18-.29.36-.58.55-.86l.07-.1c.16-.24.32-.47.49-.7l.24-.32c.43-.57.89-1.13,1.38-1.66L628,7.24l.51-.44.7-.58.16-.12c.22-.17.44-.34.67-.5s.56-.4.84-.59a24,24,0,0,1,31.89,5.19l.64.82,59.93,76.42L783.27,11l.64-.82A24,24,0,0,1,815.8,5c.28.19.56.38.84.59s.45.33.67.5l.16.12.7.58.51.44,1.65,1.65c.49.53.95,1.09,1.38,1.66l.24.32c.17.23.33.46.49.7l.07.1c.19.28.37.57.55.86l.13.21c.29.49.57,1,.82,1.52l.29.58c.16.33.31.67.44,1l.13.3c.13.33.25.65.36,1l0,.14c.14.4.26.8.37,1.2s.23.86.33,1.29.18.87.25,1.3A24,24,0,0,1,826.56,24.94Z"/><rect class="cls-2" x="435.7" y="1" width="140.45" height="47.8" rx="23.9"/><rect class="cls-2" x="435.7" y="162.12" width="140.45" height="47.8" rx="23.9"/><rect class="cls-2" x="435.7" y="81.56" width="92.52" height="47.8" rx="23.9"/><rect class="cls-3" x="869.68" y="1.15" width="140.45" height="47.8" rx="23.9"/><rect class="cls-3" x="869.68" y="162.27" width="140.45" height="47.8" rx="23.9"/><rect class="cls-3" x="869.68" y="81.71" width="92.52" height="47.8" rx="23.9"/><path class="cls-1" d="M213.09,185.84a24.31,24.31,0,0,1-46,11.07L106.54,77.44,46,196.91A24.31,24.31,0,0,1,0,185.84a24.11,24.11,0,0,1,2.61-10.91L84.27,13.81A24.41,24.41,0,0,1,106.54.51a24.4,24.4,0,0,1,22.27,13.3l81.66,161.12A24.13,24.13,0,0,1,213.09,185.84Z"/><path class="cls-1" d="M399.21,23.9a24,24,0,0,1-23.9,23.9H335.65V185.47a23.9,23.9,0,0,1-47.8,0V47.8h-41a23.9,23.9,0,0,1,0-47.8H375.31A24,24,0,0,1,399.21,23.9Z"/></g></g></svg>