<svg xmlns="http://www.w3.org/2000/svg" viewBox="0 0 1010.12 326.36"><defs><style>.cls-1{fill:#fff;}.cls-2{fill:#2ca95b;}.cls-3{fill:#00a3e0;}</style></defs><g id="Calque_2" data-name="Calque 2"><g id="Calque_1-2" data-name="Calque 1"><path class="cls-1" d="M14.75,282.35c0-16.55,12.64-28.64,29.68-28.64,8.64,0,16.16,3,21.28,8.72l-5.2,5a20.75,20.75,0,0,0-15.76-6.64c-12.64,0-22,9.12-22,21.52s9.36,21.53,22,21.53a20.82,20.82,0,0,0,15.76-6.72l5.2,5C60.59,308,53.07,311,44.35,311,27.39,311,14.75,298.92,14.75,282.35Z"/><path class="cls-1" d="M109.07,284.76v25.6h-7.28v-5.6c-2.56,3.84-7.28,6.08-13.92,6.08-9.6,0-15.68-5.12-15.68-12.48,0-6.8,4.4-12.4,17-12.4h12.16v-1.53c0-6.47-3.76-10.24-11.36-10.24a21.45,21.45,0,0,0-13.44,4.57L73.39,273c4.4-3.52,10.72-5.43,17.52-5.43C102.51,267.56,109.07,273.15,109.07,284.76Zm-7.68,12.64v-5.93H89.55c-7.6,0-9.76,3-9.76,6.57,0,4.24,3.52,6.88,9.36,6.88S99.47,302.28,101.39,297.4Z"/><path class="cls-1" d="M167.23,289.16c0,13-9,21.68-21.44,21.68A18.11,18.11,0,0,1,131,304v21.92h-7.68V268h7.36v6.73c3.44-4.73,8.88-7.12,15.12-7.12C158.19,267.56,167.23,276.19,167.23,289.16Zm-7.76,0c0-9-6.16-14.89-14.32-14.89s-14.24,5.92-14.24,14.89,6.16,15,14.24,15S159.47,298.2,159.47,289.16Z"/><path class="cls-1" d="M201.71,307.88c-2.32,2-5.84,3-9.28,3-8.56,0-13.44-4.72-13.44-13.28V274.27h-7.2V268H179v-9.28h7.68V268h12.16v6.32H186.67v23c0,4.56,2.4,7.12,6.64,7.12a9.67,9.67,0,0,0,6-2Z"/><path class="cls-1" d="M209.63,254.83a5.06,5.06,0,0,1,5.2-5,5,5,0,1,1-5.2,5ZM211,268h7.68v42.41H211Z"/><path class="cls-1" d="M270.83,268l-18.56,42.41h-7.84L225.87,268h8l14.56,34,14.88-34Z"/><path class="cls-1" d="M310.27,284.76v25.6H303v-5.6c-2.55,3.84-7.28,6.08-13.92,6.08-9.6,0-15.68-5.12-15.68-12.48,0-6.8,4.4-12.4,17-12.4h12.17v-1.53c0-6.47-3.77-10.24-11.36-10.24a21.48,21.48,0,0,0-13.45,4.57l-3.2-5.77c4.4-3.52,10.72-5.43,17.53-5.43C303.7,267.56,310.27,273.15,310.27,284.76Zm-7.68,12.64v-5.93H290.74c-7.59,0-9.76,3-9.76,6.57,0,4.24,3.52,6.88,9.37,6.88S300.66,302.28,302.59,297.4Z"/><path class="cls-1" d="M348.35,307.88a14.53,14.53,0,0,1-9.29,3c-8.56,0-13.44-4.72-13.44-13.28V274.27h-7.2V268h7.2v-9.28h7.68V268h12.16v6.32H333.3v23c0,4.56,2.4,7.12,6.64,7.12a9.63,9.63,0,0,0,6-2Z"/><path class="cls-1" d="M394.35,291.72H359.94c1,7.44,7,12.4,15.36,12.4A15.83,15.83,0,0,0,387.54,299l4.24,5c-3.84,4.48-9.67,6.88-16.72,6.88-13.68,0-22.8-9-22.8-21.68s9-21.6,21.28-21.6,21,8.79,21,21.83C394.5,290,394.43,291,394.35,291.72Zm-34.41-5.52h27.21a13.69,13.69,0,0,0-27.21,0Z"/><path class="cls-1" d="M464.18,268,443.62,314.6c-3.76,9-8.64,11.76-15.12,11.76-4.08,0-8.24-1.36-10.88-3.92l3.28-5.76a10.85,10.85,0,0,0,7.6,3.12c3.68,0,6-1.68,8.08-6.56l1.36-3L419.22,268h8L442,301.88,456.66,268Z"/><path class="cls-1" d="M466.26,289.16c0-12.64,9.36-21.6,22.08-21.6s22,9,22,21.6-9.28,21.68-22,21.68S466.26,301.8,466.26,289.16Zm36.32,0c0-9-6.08-14.89-14.24-14.89S474,280.12,474,289.16s6.16,15,14.32,15S502.58,298.2,502.58,289.16Z"/><path class="cls-1" d="M560.5,268v42.41h-7.28V304c-3.12,4.4-8.4,6.88-14.4,6.88-11,0-18.24-6-18.24-18.48V268h7.68v23.52c0,8.33,4.16,12.49,11.44,12.49,8,0,13.12-5,13.12-14.08V268Z"/><path class="cls-1" d="M597.94,267.56V275a13.56,13.56,0,0,0-1.76-.08c-8.24,0-13.36,5-13.36,14.32v21.12h-7.68V268h7.36v7.12C585.22,270.11,590.5,267.56,597.94,267.56Z"/><path class="cls-1" d="M663.06,284.76v25.6h-7.28v-5.6c-2.56,3.84-7.28,6.08-13.92,6.08-9.6,0-15.68-5.12-15.68-12.48,0-6.8,4.4-12.4,17-12.4h12.16v-1.53c0-6.47-3.76-10.24-11.36-10.24a21.45,21.45,0,0,0-13.44,4.57l-3.2-5.77c4.4-3.52,10.72-5.43,17.52-5.43C656.5,267.56,663.06,273.15,663.06,284.76Zm-7.68,12.64v-5.93H643.54c-7.6,0-9.76,3-9.76,6.57,0,4.24,3.52,6.88,9.36,6.88S653.46,302.28,655.38,297.4Z"/><path class="cls-1" d="M716.82,268v42.41h-7.28V304c-3.12,4.4-8.4,6.88-14.4,6.88-11,0-18.24-6-18.24-18.48V268h7.68v23.52c0,8.33,4.16,12.49,11.44,12.49,8,0,13.12-5,13.12-14.08V268Z"/><path class="cls-1" d="M771.46,251v59.37H764.1v-6.72c-3.44,4.8-8.88,7.2-15.12,7.2-12.4,0-21.44-8.72-21.44-21.68s9-21.6,21.44-21.6c6,0,11.28,2.24,14.8,6.79V251Zm-7.6,38.17c0-9-6.16-14.89-14.24-14.89s-14.32,5.85-14.32,14.89,6.16,15,14.32,15S763.86,298.2,763.86,289.16Z"/><path class="cls-1" d="M784.66,254.83a5.06,5.06,0,0,1,5.2-5,5,5,0,1,1-5.2,5ZM786,268h7.68v42.41H786Z"/><path class="cls-1" d="M846.5,291.72H812.1c1,7.44,7,12.4,15.36,12.4A15.83,15.83,0,0,0,839.7,299l4.24,5c-3.84,4.48-9.68,6.88-16.72,6.88-13.68,0-22.8-9-22.8-21.68s9-21.6,21.28-21.6,21,8.79,21,21.83C846.66,290,846.58,291,846.5,291.72Zm-34.4-5.52h27.2a13.68,13.68,0,0,0-27.2,0Z"/><path class="cls-1" d="M897.54,286v24.4h-7.68V286.84c0-8.32-4.16-12.41-11.44-12.41-8.16,0-13.44,4.88-13.44,14.09v21.84H857.3V268h7.36v6.4c3.12-4.32,8.56-6.79,15.28-6.79C890.26,267.56,897.54,273.47,897.54,286Z"/><path class="cls-1" d="M908.1,289.16c0-12.64,9.36-21.6,22.4-21.6,7.6,0,13.92,3.12,17.28,9l-5.84,3.75a13.22,13.22,0,0,0-11.52-6.08c-8.32,0-14.56,5.85-14.56,14.89,0,9.2,6.24,15,14.56,15A13.22,13.22,0,0,0,941.94,298l5.84,3.68c-3.36,5.92-9.68,9.12-17.28,9.12C917.46,310.84,908.1,301.8,908.1,289.16Z"/><path class="cls-1" d="M995.22,291.72h-34.4c1,7.44,7,12.4,15.36,12.4A15.83,15.83,0,0,0,988.42,299l4.24,5c-3.84,4.48-9.68,6.88-16.72,6.88-13.68,0-22.8-9-22.8-21.68s9-21.6,21.28-21.6,21,8.79,21,21.83C995.38,290,995.3,291,995.22,291.72Zm-34.4-5.52H988a13.68,13.68,0,0,0-27.2,0Z"/><path class="cls-1" d="M826.56,24.94V186.47a23.9,23.9,0,1,1-47.8,0V94.23l-36,45.88a25.35,25.35,0,0,1-38.88,0l-36-45.88v92.24a23.9,23.9,0,0,1-47.8,0V24.94a24,24,0,0,1,.33-3.88c.07-.43.15-.87.25-1.3s.21-.86.33-1.29.23-.8.37-1.2l.05-.14c.11-.33.23-.65.36-1l.13-.3c.13-.34.28-.68.44-1l.29-.58c.25-.52.53-1,.82-1.52l.13-.21c.18-.29.36-.58.55-.86l.07-.1c.16-.24.32-.47.49-.7l.24-.32c.43-.57.89-1.13,1.38-1.66L628,7.24l.51-.44.7-.58.16-.12c.22-.17.44-.34.67-.5s.56-.4.84-.59a24,24,0,0,1,31.89,5.19l.64.82,59.93,76.42L783.27,11l.64-.82A24,24,0,0,1,815.8,5c.28.19.56.38.84.59s.45.33.67.5l.16.12.7.58.51.44,1.65,1.65c.49.53.95,1.09,1.38,1.66l.24.32c.17.23.33.46.49.7l.07.1c.19.28.37.57.55.86l.13.21c.29.49.57,1,.82,1.52l.29.58c.16.33.31.67.44,1l.13.3c.13.33.25.65.36,1l0,.14c.14.4.26.8.37,1.2s.23.86.33,1.29.18.87.25,1.3A24,24,0,0,1,826.56,24.94Z"/><rect class="cls-2" x="435.7" y="1" width="140.45" height="47.8" rx="23.9"/><rect class="cls-2" x="435.7" y="162.12" width="140.45" height="47.8" rx="23.9"/><rect class="cls-2" x="435.7" y="81.56" width="92.52" height="47.8" rx="23.9"/><rect class="cls-3" x="869.68" y="1.15" width="140.45" height="47.8" rx="23.9"/><rect class="cls-3" x="869.68" y="162.27" width="140.45" height="47.8" rx="23.9"/><rect class="cls-3" x="869.68" y="81.71" width="92.52" height="47.8" rx="23.9"/><path class="cls-1" d="M213.09,185.84a24.31,24.31,0,0,1-46,11.07L106.54,77.44,46,196.91A24.31,24.31,0,0,1,0,185.84a24.11,24.11,0,0,1,2.61-10.91L84.27,13.81A24.41,24.41,0,0,1,106.54.51a24.4,24.4,0,0,1,22.27,13.3l81.66,161.12A24.13,24.13,0,0,1,213.09,185.84Z"/><path class="cls-1" d="M399.21,23.9a24,24,0,0,1-23.9,23.9H335.65V185.47a23.9,23.9,0,0,1-47.8,0V47.8h-41a23.9,23.9,0,0,1,0-47.8H375.31A24,24,0,0,1,399.21,23.9Z"/></g></g></svg>